<?xml version="1.0" standalone="no"?><!DOCTYPE svg PUBLIC "-//W3C//DTD SVG 1.1//EN" "http://www.w3.org/Graphics/SVG/1.1/DTD/svg11.dtd"><svg t="1685002259447" class="icon" viewBox="0 0 1024 1024" version="1.1" xmlns="http://www.w3.org/2000/svg" p-id="1272" xmlns:xlink="http://www.w3.org/1999/xlink" width="200" height="200"><path d="M348.84630124 843.47321405c-16.78890289 0-33.14732108-5.16581653-46.92283181-15.49744876-24.96811239-18.08035703-37.02168347-48.21428595-31.85586777-78.34821405l19.80229668-116.23086777c2.58290826-15.06696405-2.58290826-30.13392892-13.34502602-40.46556115L191.7193876 510.27806115c-21.95471943-21.52423471-29.70344422-52.94961695-20.23278058-82.22257644 9.47066364-29.2729595 34.4387752-50.3667095 65.00318885-54.67155579l116.66135247-16.78890372c15.06696405-2.15242356 27.98150537-11.62308636 34.43877522-24.96811157l52.08864751-105.89923471C453.45408181 197.74617356 481.00510166 180.52678595 512 180.52678595s58.54591819 17.21938761 71.89094422 44.77040827L636.41007644 331.19642893c6.88775537 13.3450252 19.80229587 22.81568885 34.43877522 24.96811157l116.66135247 16.78890372c30.56441363 4.30484711 55.5325252 25.3985971 65.00318884 54.67155578 9.47066364 29.2729595 1.72193885 60.69834173-20.23278058 82.22257644l-84.37499999 82.22257646c-10.76211695 10.33163305-15.92793347 25.82908181-13.34502604 40.46556115l19.80229669 116.23086776c5.16581653 30.56441363-6.88775537 60.26785702-31.85586776 78.34821406-24.96811239 18.08035703-57.25446405 20.23278058-84.375 6.02678594L533.52423471 779.33099463c-13.3450252-6.88775537-29.2729595-6.88775537-42.61798471 0l-104.60778058 55.10204132c-12.05357108 6.02678595-24.96811239 9.04017892-37.45216818 9.0401781z m133.88073926-79.63966818z" fill="#087823" p-id="1273"></path></svg>